<svg width="13" height="13" viewBox="0 0 13 13" fill="none" xmlns="http://www.w3.org/2000/svg">
<path d="M6.5 0.00012207C2.90927 0.00012207 0 2.9094 0 6.50012C0 10.0908 2.90927 13.0001 6.5 13.0001C10.0907 13.0001 13 10.0908 13 6.50012C13 2.9094 10.0907 0.00012207 6.5 0.00012207ZM7.99657 9.17613L5.68488 7.49609C5.60363 7.43581 5.55645 7.34145 5.55645 7.24186V2.83077C5.55645 2.65778 5.69798 2.51625 5.87097 2.51625H7.12903C7.30202 2.51625 7.44355 2.65778 7.44355 2.83077V6.43984L9.10786 7.65073C9.24939 7.75294 9.27823 7.94952 9.17601 8.09105L8.43689 9.10798C8.33468 9.2469 8.1381 9.27835 7.99657 9.17613Z" fill="white"/>
</svg>
