<svg width="12" height="12" viewBox="0 0 12 12" fill="none" xmlns="http://www.w3.org/2000/svg">
<path d="M7.816 5.403L7.58108 5.64618L7.816 5.88936L10.9172 9.09956C11.167 9.35827 11.1668 9.78199 10.9173 10.0402L10.2281 10.7537C9.9851 11.0052 9.59601 11.0052 9.35302 10.7537L6.25168 7.54342L5.99996 7.28285L5.74823 7.54342L2.64689 10.7537C2.40391 11.0052 2.01481 11.0052 1.77182 10.7537L1.08267 10.0403C0.832939 9.78164 0.833078 9.35791 1.08257 9.09966L4.18391 5.88936L4.41883 5.64618L4.18391 5.403L1.08267 2.1928C0.832938 1.93409 0.833078 1.51037 1.08257 1.25211L1.77172 0.538743C2.01509 0.287028 2.40396 0.287178 2.64689 0.538641L5.74823 3.74894L5.99996 4.00951L6.25168 3.74894L9.35292 0.538743C9.35295 0.538709 9.35299 0.538675 9.35302 0.538641C9.5964 0.287028 9.98519 0.287212 10.2281 0.538641L10.9172 1.25201C10.9173 1.25204 10.9173 1.25207 10.9173 1.2521C10.9173 1.2521 10.9173 1.25211 10.9173 1.25211C11.167 1.51083 11.1668 1.93448 10.9173 2.1927L7.816 5.403Z" fill="black" stroke="white" stroke-width="0.7"/>
</svg>
